PathFileType	4	(X/Y/Z)	C:/Users/opensim2020/Desktop/walking_exp_matlab/subject03_walking05_straight_02.trc	
DataRate	CameraRate	NumFrames	NumMarkers	Units	OrigDataRate	OrigDataStartFrame	OrigNumFrames	
100.00	100.00	5	45	mm	100.00	1571	252	
Frame#	Time	LFHD			RFHD			LBHD			RBHD			C7			T10			CLAV			STRN			RBAK			LSHO			LUPA			LELB			LFRM			LWRA			LWRB			LFIN			RSHO			RUPA			RELB			RFRM			RWRA			RWRB			RFIN			LASI			RASI			LPSI			RPSI			LTHI			LKNE			LTIB			LANK			LHEE			LTOE			RTHI			RKNE			RTIB			RANK			RHEE			RTOE			*39			*40			*41			*42			*43			*44			
		X1	Y1	Z1	X2	Y2	Z2	X3	Y3	Z3	X4	Y4	Z4	X5	Y5	Z5	X6	Y6	Z6	X7	Y7	Z7	X8	Y8	Z8	X9	Y9	Z9	X10	Y10	Z10	X11	Y11	Z11	X12	Y12	Z12	X13	Y13	Z13	X14	Y14	Z14	X15	Y15	Z15	X16	Y16	Z16	X17	Y17	Z17	X18	Y18	Z18	X19	Y19	Z19	X20	Y20	Z20	X21	Y21	Z21	X22	Y22	Z22	X23	Y23	Z23	X24	Y24	Z24	X25	Y25	Z25	X26	Y26	Z26	X27	Y27	Z27	X28	Y28	Z28	X29	Y29	Z29	X30	Y30	Z30	X31	Y31	Z31	X32	Y32	Z32	X33	Y33	Z33	X34	Y34	Z34	X35	Y35	Z35	X36	Y36	Z36	X37	Y37	Z37	X38	Y38	Z38	X39	Y39	Z39	X40	Y40	Z40	X41	Y41	Z41	X42	Y42	Z42	X43	Y43	Z43	X44	Y44	Z44	X45	Y45	Z45	

95	0.940	1498.62292	360.80966	1605.93323	1366.99756	380.10721	1614.31470	1509.70947	488.01767	1560.21436	1379.89722	501.91901	1568.52612	1449.80957	525.66742	1405.54028	1442.59424	559.69794	1091.11182	1437.51855	404.91110	1327.15576	1441.97668	362.72009	1162.67346	1359.85535	588.82959	1229.11829	1595.10486	436.41156	1365.84216	1671.73816	394.06378	1182.85413	1682.14929	338.64569	1075.22791	1660.35571	240.67090	996.52911	1606.85620	155.55794	928.84662	1658.07092	165.97145	910.80066	1635.15186	96.81170	871.27991	1282.42371	467.67035	1351.37915	1210.27454	492.10880	1129.98804	1194.28345	488.05289	1017.35626	1188.52112	487.11664	880.23242	1219.42297	464.82443	780.90314	1178.07678	500.67798	780.80823	1185.88074	485.65384	707.08118	1562.17737	391.56796	930.60345	1322.01099	387.65027	929.72443	1504.79700	552.80042	950.43488	1356.29480	550.00934	952.14606	1591.51038	485.87561	635.00336	1553.45520	522.48956	459.71420	1554.57104	630.00482	290.78195	1513.76392	717.50208	98.32336	1479.64490	768.55371	75.38873	1478.52502	580.20282	33.76892	1273.99561	390.03506	634.79657	1311.71631	315.02042	470.51999	1304.61145	298.67410	286.34357	1344.13489	243.20695	74.46482	1400.27832	274.17566	36.09362	1357.89392	96.65565	61.18483																		 
96	0.950	1497.46362	350.71173	1606.07361	1365.67834	369.84204	1614.18701	1507.96338	477.89041	1560.23120	1378.46033	491.75305	1568.49719	1448.52844	515.63043	1405.46106	1441.59875	548.94293	1090.87695	1436.38892	394.54495	1327.14343	1441.01611	352.16995	1162.64795	1358.45044	578.19293	1228.76904	1593.96594	426.58789	1365.91760	1670.52795	385.57663	1182.33044	1680.78296	331.04175	1074.28650	1658.99023	233.30769	995.89630	1605.20166	147.76866	928.65106	1656.18921	158.43864	910.08850	1633.19958	89.18150	871.01770	1281.21912	457.26300	1351.33582	1209.41248	481.60300	1129.76355	1193.63220	477.70154	1017.09753	1188.09131	477.04504	879.96411	1218.85669	454.39520	780.80261	1177.75024	490.82880	780.53552	1185.78491	476.08786	706.60645	1561.22156	381.11737	930.16376	1321.02673	376.70795	929.77374	1503.61975	542.13708	950.38348	1355.24536	539.17499	952.50720	1590.97913	476.31784	634.73096	1553.67065	513.59381	459.48013	1554.79077	624.09613	292.09491	1514.24792	715.90308	101.70793	1480.12891	766.97717	79.74603	1478.75708	580.30414	33.59514	1274.00525	379.16150	635.27704	1311.89050	306.29797	469.94791	1305.17505	293.33939	284.80386	1345.43604	242.55484	72.15296	1401.53467	274.47546	33.57194	1360.09705	96.41711	55.24214																		 
97	0.960	1496.10522	340.67902	1606.18372	1364.33459	359.54816	1614.16406	1506.60840	467.88635	1560.41711	1376.77466	481.47104	1568.39990	1447.02771	505.41666	1405.31897	1440.59253	538.01898	1090.70923	1435.18396	384.03268	1327.19836	1439.96155	341.28290	1162.87854	1357.02271	567.44525	1228.43701	1592.72485	416.61954	1366.03296	1669.16003	377.14575	1181.77429	1679.39343	323.73141	1073.29260	1657.48059	225.92276	994.91626	1603.59485	140.52109	927.86823	1654.36829	151.37350	908.90582	1631.37280	82.02094	870.07556	1279.88208	446.61520	1351.32043	1208.48779	470.91187	1129.64148	1193.07068	467.07855	1016.85687	1187.64453	466.64233	879.78149	1218.48267	444.06680	780.56964	1177.45520	480.67221	780.33649	1185.77319	466.23831	706.32196	1560.34924	370.32153	929.78882	1320.00867	365.64771	929.96515	1502.56238	531.42426	950.41394	1354.15564	528.29163	952.96240	1590.47009	466.35596	634.42969	1553.90967	503.98862	459.06848	1555.04736	617.79041	293.46188	1515.09729	713.81445	105.39585	1480.79980	765.29852	84.75054	1478.73792	580.04761	33.46254	1273.94897	368.08768	635.91949	1312.00183	297.82861	469.32388	1305.99048	288.49371	283.34631	1346.36499	240.66296	70.76086	1402.29822	273.93237	33.96801	1362.47839	95.17514	47.20827																		 
98	0.970	1494.85254	330.58035	1606.56689	1362.95776	349.32040	1614.53906	1505.55359	457.88922	1560.82507	1375.54834	471.19638	1568.68408	1445.54919	495.28021	1405.47021	1439.53735	526.91125	1090.74060	1433.91052	373.60376	1327.49463	1438.86450	330.63669	1163.37000	1355.69189	556.74005	1228.34717	1591.50366	406.60257	1366.26880	1667.74182	368.72446	1181.24792	1678.00000	316.52264	1072.23706	1656.07617	219.11423	993.52472	1602.19861	133.52960	926.63220	1652.79004	144.69119	907.37976	1629.69592	75.29469	868.53455	1278.46631	435.95526	1351.40662	1207.48328	460.12155	1129.55640	1192.24731	456.33603	1016.76532	1187.23352	455.93597	879.62549	1218.34729	433.98453	780.34302	1177.22473	470.11169	780.19080	1185.75061	455.81036	706.09247	1559.39294	359.33893	929.53918	1319.03333	354.58875	930.36389	1501.58472	520.69922	950.45416	1353.06494	517.27032	953.57672	1589.97620	456.00101	634.10651	1554.23926	493.91980	458.65848	1555.31958	610.92560	294.94891	1515.79810	711.02948	109.26235	1481.67896	762.99121	90.14674	1478.59155	579.61322	33.27859	1274.11145	357.09659	637.46277	1312.14832	290.48776	469.19879	1306.68359	283.20828	282.99255	1346.38440	235.52301	71.19447	1401.23730	271.59976	35.71225	1364.67615	90.76749	43.57568																		 
99	0.980	1493.70837	320.41003	1607.55774	1361.70776	338.82861	1615.31970	1503.95654	447.43179	1561.51733	1373.75269	460.63953	1569.18518	1443.99109	485.09808	1406.04004	1438.51147	515.92029	1091.18982	1432.65588	363.24496	1328.35034	1437.77795	319.95468	1164.39856	1354.39087	546.09930	1228.59326	1590.30627	396.55380	1366.69153	1666.23633	360.21481	1180.82324	1676.62268	309.41852	1071.18237	1654.73743	212.51823	991.99121	1600.89563	127.05402	924.93433	1651.38147	138.45078	905.51569	1628.25403	69.25854	866.41614	1276.95813	425.30145	1351.74622	1206.38940	449.12674	1129.64868	1191.41602	445.33212	1016.77185	1186.68274	445.12915	879.62689	1217.99817	422.75793	780.51208	1176.85449	459.36102	780.16211	1185.75134	445.19284	706.25055	1558.50598	348.26031	929.43463	1318.00708	343.46774	931.11786	1500.62134	509.71753	950.57715	1352.07092	506.10309	954.44745	1589.48303	445.18997	633.87891	1554.56458	482.94186	458.21387	1555.57776	603.31311	296.61526	1516.18213	707.43207	113.43738	1482.04541	759.86151	95.90648	1478.51147	579.25916	33.12014	1274.13037	346.37115	639.22766	1312.06458	283.94714	469.46344	1306.15869	276.41211	283.63525	1346.64954	231.26813	71.10125	1400.92358	269.15125	37.31539	1363.61572	86.66095	41.79933																		 
